
<svg width="1197" height="131" id="svg-0" viewBox="0 0 1197 131" preserveAspectRatio="xMidYMin slice" xmlns="http://www.w3.org/2000/svg" xmlns:xlink="http://www.w3.org/1999/xhtml" xmlns:ncbicdd="http://www.ncbi.nlm.nih/Structure/cdd"><defs><filter id="fltrDomLabel0" filterUnits="objectBoundingBox" x="0%" y="0%" width="100%" height="100%"><feComponentTransfer in="SourceGraphic" result="fltrDomLabel0_bgc"><feFuncR type="discrete" tableValues="1 1"></feFuncR><feFuncG type="discrete" tableValues="1 1"></feFuncG><feFuncB type="discrete" tableValues="1 1"></feFuncB></feComponentTransfer><feGaussianBlur in="fltrDomLabel0_bgc" stdDeviation="1.5" result="fltrDomLabel0_blur"></feGaussianBlur><feMerge><feMergeNode in="fltrDomLabel0_blur"></feMergeNode><feMergeNode in="SourceGraphic"></feMergeNode></feMerge></filter><filter id="fltrDomLabel1" filterUnits="objectBoundingBox" x="0%" y="0%" width="100%" height="100%"><feComponentTransfer in="SourceGraphic" result="fltrDomLabel1_bgc"><feFuncR type="discrete" tableValues="0 0"></feFuncR><feFuncG type="discrete" tableValues="0 0"></feFuncG><feFuncB type="discrete" tableValues="0 0"></feFuncB></feComponentTransfer><feGaussianBlur in="fltrDomLabel1_bgc" stdDeviation="1.5" result="fltrDomLabel1_blur"></feGaussianBlur><feMerge><feMergeNode in="fltrDomLabel1_blur"></feMergeNode><feMergeNode in="SourceGraphic"></feMergeNode></feMerge></filter><linearGradient id="0_102_153_0_0" gradientUnits="objectBoundingBox" x1="0%" y1="0%" x2="100%" y2="100%" spreadMethod="pad"><stop offset="0%" stop-color="rgb(192.1442,255,66.43260000000002)"></stop><stop offset="100%" stop-color="rgb(102,153,0)"></stop></linearGradient><linearGradient id="0_102_153_0_1" gradientUnits="objectBoundingBox" x1="0%" y1="0%" x2="100%" y2="100%" spreadMethod="pad"><stop offset="0%" stop-color="rgb(106.94133333333335,160.412,0)"></stop><stop offset="100%" stop-color="rgb(80.20600000000002,120.309,0)"></stop></linearGradient></defs><style type="text/css">.lnlabel {fill: black; stroke: none; font-family: 'Public Sans','Source Sans Pro',Verdana,'Lucida Sans','Trebuchet MS','Gill Sans',Arial,sans-serif; font-size: 12px; font-weight: 800; text-anchor: left;}
.domlabel0 {fill: black; stroke: none; font-family: 'Public Sans','Source Sans Pro',Verdana,'Lucida Sans','Trebuchet MS','Gill Sans',Arial,sans-serif; font-weight: 800; text-anchor: middle; filter: url(#fltrDomLabel0);}
.domlabel1 {fill: white; stroke: none; font-family: 'Public Sans','Source Sans Pro',Verdana,'Lucida Sans','Trebuchet MS','Gill Sans',Arial,sans-serif; font-weight: 800; text-anchor: middle; filter: url(#fltrDomLabel1);}
.featlabel0 {fill: black; stroke: none; font-family: 'Public Sans','Source Sans Pro',Verdana,'Lucida Sans','Trebuchet MS','Gill Sans',Arial,sans-serif; font-weight: 800; text-anchor: right; filter: url(#fltrDomLabel0);}
.featlabel1 {fill: white; stroke: none; font-family: 'Public Sans','Source Sans Pro',Verdana,'Lucida Sans','Trebuchet MS','Gill Sans',Arial,sans-serif; font-weight: 800; text-anchor: right; filter: url(#fltrDomLabel1);}
.qseq {fill: rgb(204, 204, 204); stroke: none;}
.tqseq {font-family: 'Roboto Mono','Courier New',Courier,'Lucida Console',monospace}
.aseq {fill: rgb(204, 153, 153); stroke: none;}
.maskregion {fill: rgb(127, 255, 255); fill-opacity: 0.6; stroke: rgb(0, 255, 255);}</style><g><rect stroke="none" fill="#fff0ff" x="0" y="64" width="1186" height="31"></rect><rect stroke="none" fill="#fffff0" x="0" y="100" width="1186" height="31"></rect><rect fill="none" stroke="rgb(102,153,0)" x="420.55696202531647" y="64" width="212" height="67"></rect><g><g id="Query_0_0" class="qseq"><title>lcl|SEQMD5_5bb0c95030fc58973f81e752a16d511b:undefined</title><path d="M120,21 120,41 1180,41 1180,21 Z" ncbicdd:interval="(0,394)"></path></g><g font-family="Merriweather,Georgia,Palatino,Garamond,Baskville,'Times New Roman',Times,serif" font-size="9" fill="blue"><text x="121" y="14" text-anchor="middle">1</text><line stroke="blue" x1="121" y1="20" x2="121" y2="16"></line><text x="172" y="14" text-anchor="middle">20</text><line stroke="blue" x1="172" y1="20" x2="172" y2="16"></line><text x="226" y="14" text-anchor="middle">40</text><line stroke="blue" x1="226" y1="20" x2="226" y2="16"></line><text x="280" y="14" text-anchor="middle">60</text><line stroke="blue" x1="280" y1="20" x2="280" y2="16"></line><text x="333" y="14" text-anchor="middle">80</text><line stroke="blue" x1="333" y1="20" x2="333" y2="16"></line><text x="387" y="14" text-anchor="middle">100</text><line stroke="blue" x1="387" y1="20" x2="387" y2="16"></line><text x="441" y="14" text-anchor="middle">120</text><line stroke="blue" x1="441" y1="20" x2="441" y2="16"></line><text x="494" y="14" text-anchor="middle">140</text><line stroke="blue" x1="494" y1="20" x2="494" y2="16"></line><text x="548" y="14" text-anchor="middle">160</text><line stroke="blue" x1="548" y1="20" x2="548" y2="16"></line><text x="602" y="14" text-anchor="middle">180</text><line stroke="blue" x1="602" y1="20" x2="602" y2="16"></line><text x="655" y="14" text-anchor="middle">200</text><line stroke="blue" x1="655" y1="20" x2="655" y2="16"></line><text x="709" y="14" text-anchor="middle">220</text><line stroke="blue" x1="709" y1="20" x2="709" y2="16"></line><text x="763" y="14" text-anchor="middle">240</text><line stroke="blue" x1="763" y1="20" x2="763" y2="16"></line><text x="816" y="14" text-anchor="middle">260</text><line stroke="blue" x1="816" y1="20" x2="816" y2="16"></line><text x="870" y="14" text-anchor="middle">280</text><line stroke="blue" x1="870" y1="20" x2="870" y2="16"></line><text x="924" y="14" text-anchor="middle">300</text><line stroke="blue" x1="924" y1="20" x2="924" y2="16"></line><text x="977" y="14" text-anchor="middle">320</text><line stroke="blue" x1="977" y1="20" x2="977" y2="16"></line><text x="1031" y="14" text-anchor="middle">340</text><line stroke="blue" x1="1031" y1="20" x2="1031" y2="16"></line><text x="1085" y="14" text-anchor="middle">360</text><line stroke="blue" x1="1085" y1="20" x2="1085" y2="16"></line><text x="1138" y="14" text-anchor="middle">380</text><line stroke="blue" x1="1138" y1="20" x2="1138" y2="16"></line><text x="1179" y="14" text-anchor="middle">395</text><line stroke="blue" x1="1179" y1="20" x2="1179" y2="16"></line><line stroke="blue" x1="132" y1="20" x2="132" y2="18"></line><line stroke="blue" x1="145" y1="20" x2="145" y2="18"></line><line stroke="blue" x1="159" y1="20" x2="159" y2="18"></line><line stroke="blue" x1="186" y1="20" x2="186" y2="18"></line><line stroke="blue" x1="199" y1="20" x2="199" y2="18"></line><line stroke="blue" x1="213" y1="20" x2="213" y2="18"></line><line stroke="blue" x1="239" y1="20" x2="239" y2="18"></line><line stroke="blue" x1="253" y1="20" x2="253" y2="18"></line><line stroke="blue" x1="266" y1="20" x2="266" y2="18"></line><line stroke="blue" x1="293" y1="20" x2="293" y2="18"></line><line stroke="blue" x1="307" y1="20" x2="307" y2="18"></line><line stroke="blue" x1="320" y1="20" x2="320" y2="18"></line><line stroke="blue" x1="347" y1="20" x2="347" y2="18"></line><line stroke="blue" x1="360" y1="20" x2="360" y2="18"></line><line stroke="blue" x1="374" y1="20" x2="374" y2="18"></line><line stroke="blue" x1="400" y1="20" x2="400" y2="18"></line><line stroke="blue" x1="414" y1="20" x2="414" y2="18"></line><line stroke="blue" x1="427" y1="20" x2="427" y2="18"></line><line stroke="blue" x1="454" y1="20" x2="454" y2="18"></line><line stroke="blue" x1="468" y1="20" x2="468" y2="18"></line><line stroke="blue" x1="481" y1="20" x2="481" y2="18"></line><line stroke="blue" x1="508" y1="20" x2="508" y2="18"></line><line stroke="blue" x1="521" y1="20" x2="521" y2="18"></line><line stroke="blue" x1="535" y1="20" x2="535" y2="18"></line><line stroke="blue" x1="561" y1="20" x2="561" y2="18"></line><line stroke="blue" x1="575" y1="20" x2="575" y2="18"></line><line stroke="blue" x1="588" y1="20" x2="588" y2="18"></line><line stroke="blue" x1="615" y1="20" x2="615" y2="18"></line><line stroke="blue" x1="629" y1="20" x2="629" y2="18"></line><line stroke="blue" x1="642" y1="20" x2="642" y2="18"></line><line stroke="blue" x1="669" y1="20" x2="669" y2="18"></line><line stroke="blue" x1="682" y1="20" x2="682" y2="18"></line><line stroke="blue" x1="696" y1="20" x2="696" y2="18"></line><line stroke="blue" x1="722" y1="20" x2="722" y2="18"></line><line stroke="blue" x1="736" y1="20" x2="736" y2="18"></line><line stroke="blue" x1="749" y1="20" x2="749" y2="18"></line><line stroke="blue" x1="776" y1="20" x2="776" y2="18"></line><line stroke="blue" x1="790" y1="20" x2="790" y2="18"></line><line stroke="blue" x1="803" y1="20" x2="803" y2="18"></line><line stroke="blue" x1="830" y1="20" x2="830" y2="18"></line><line stroke="blue" x1="843" y1="20" x2="843" y2="18"></line><line stroke="blue" x1="857" y1="20" x2="857" y2="18"></line><line stroke="blue" x1="883" y1="20" x2="883" y2="18"></line><line stroke="blue" x1="897" y1="20" x2="897" y2="18"></line><line stroke="blue" x1="910" y1="20" x2="910" y2="18"></line><line stroke="blue" x1="937" y1="20" x2="937" y2="18"></line><line stroke="blue" x1="951" y1="20" x2="951" y2="18"></line><line stroke="blue" x1="964" y1="20" x2="964" y2="18"></line><line stroke="blue" x1="991" y1="20" x2="991" y2="18"></line><line stroke="blue" x1="1004" y1="20" x2="1004" y2="18"></line><line stroke="blue" x1="1018" y1="20" x2="1018" y2="18"></line><line stroke="blue" x1="1044" y1="20" x2="1044" y2="18"></line><line stroke="blue" x1="1058" y1="20" x2="1058" y2="18"></line><line stroke="blue" x1="1071" y1="20" x2="1071" y2="18"></line><line stroke="blue" x1="1098" y1="20" x2="1098" y2="18"></line><line stroke="blue" x1="1112" y1="20" x2="1112" y2="18"></line><line stroke="blue" x1="1125" y1="20" x2="1125" y2="18"></line><line stroke="blue" x1="1152" y1="20" x2="1152" y2="18"></line><line stroke="blue" x1="1165" y1="20" x2="1165" y2="18"></line></g></g><text class="lnlabel" x="0" y="38" font-size="12">Query</text><g><a href="/Structure/cdd/cddsrv.cgi?uid=cd20023&amp;ascbin=8&amp;maxaln=10&amp;seltype=2&amp;query=SGAGPAEEAGPEGGLEEPDALDDSLTSLQWLQEFSILNAKAPALPPGGTDPHGYHQVASGPAPGSPLAADPACLGQPHTPGKPTSSCTSRSAPPGLQAPPPDDVDYATNPHVKPPYSYATLICMAMQASKATKITLSAIYKWITDNFCYFRHADPTWQNSIRHNLSLNKCFIKVPREKDEPGKGGFWRIDPQYAERLLSGAFKKRRLPPVHIHPAFARQAAQEPSAVPRAGPLTVNTEAQQLLREFEEAAEGTGWGAGEGRLGHKRKQPLPKRVAKVPRPPSTLLPTPEEQGELEPLKGNFDWEAIFDAGTLGGELGALEALELSPPLSPASHVDVDLTIHGRHIDCPATWGPSVEQAADSLDFDETFLATSFLQHPWDESGSGCLPPEPLFEAG&amp;aln=1,112,0,79" xlink:href="/Structure/cdd/cddsrv.cgi?uid=cd20023&amp;ascbin=8&amp;maxaln=10&amp;seltype=2&amp;query=SGAGPAEEAGPEGGLEEPDALDDSLTSLQWLQEFSILNAKAPALPPGGTDPHGYHQVASGPAPGSPLAADPACLGQPHTPGKPTSSCTSRSAPPGLQAPPPDDVDYATNPHVKPPYSYATLICMAMQASKATKITLSAIYKWITDNFCYFRHADPTWQNSIRHNLSLNKCFIKVPREKDEPGKGGFWRIDPQYAERLLSGAFKKRRLPPVHIHPAFARQAAQEPSAVPRAGPLTVNTEAQQLLREFEEAAEGTGWGAGEGRLGHKRKQPLPKRVAKVPRPPSTLLPTPEEQGELEPLKGNFDWEAIFDAGTLGGELGALEALELSPPLSPASHVDVDLTIHGRHIDCPATWGPSVEQAADSLDFDETFLATSFLQHPWDESGSGCLPPEPLFEAG&amp;aln=1,112,0,79" id="s_0_0_0_5" class="feat" onmouseenter="siteMouseEnter(this);" onmouseleave="defMouseLeave(this);"><g><g ncbicdd:residue="117"><path d="M 430,58 435,46 435,55 Z" fill="url(#0_102_153_0_0)"></path><path d="M 435,46 435,55 440,58 Z" fill="url(#0_102_153_0_1)"></path></g><g ncbicdd:residue="135"><path d="M 479,58 484,46 484,55 Z" fill="url(#0_102_153_0_0)"></path><path d="M 484,46 484,55 489,58 Z" fill="url(#0_102_153_0_1)"></path></g><g ncbicdd:residue="136"><path d="M 481,58 486,46 486,55 Z" fill="url(#0_102_153_0_0)"></path><path d="M 486,46 486,55 491,58 Z" fill="url(#0_102_153_0_1)"></path></g><g ncbicdd:residue="139"><path d="M 489,58 494,46 494,55 Z" fill="url(#0_102_153_0_0)"></path><path d="M 494,46 494,55 499,58 Z" fill="url(#0_102_153_0_1)"></path></g><g ncbicdd:residue="158"><path d="M 540,58 545,46 545,55 Z" fill="url(#0_102_153_0_0)"></path><path d="M 545,46 545,55 550,58 Z" fill="url(#0_102_153_0_1)"></path></g><g ncbicdd:residue="159"><path d="M 543,58 548,46 548,55 Z" fill="url(#0_102_153_0_0)"></path><path d="M 548,46 548,55 553,58 Z" fill="url(#0_102_153_0_1)"></path></g><g ncbicdd:residue="161"><path d="M 548,58 553,46 553,55 Z" fill="url(#0_102_153_0_0)"></path><path d="M 553,46 553,55 558,58 Z" fill="url(#0_102_153_0_1)"></path></g><g ncbicdd:residue="162"><path d="M 551,58 556,46 556,55 Z" fill="url(#0_102_153_0_0)"></path><path d="M 556,46 556,55 561,58 Z" fill="url(#0_102_153_0_1)"></path></g><g ncbicdd:residue="165"><path d="M 559,58 564,46 564,55 Z" fill="url(#0_102_153_0_0)"></path><path d="M 564,46 564,55 569,58 Z" fill="url(#0_102_153_0_1)"></path></g><g ncbicdd:residue="172"><path d="M 578,58 583,46 583,55 Z" fill="url(#0_102_153_0_0)"></path><path d="M 583,46 583,55 588,58 Z" fill="url(#0_102_153_0_1)"></path></g><g ncbicdd:residue="182"><path d="M 605,58 610,46 610,55 Z" fill="url(#0_102_153_0_0)"></path><path d="M 610,46 610,55 615,58 Z" fill="url(#0_102_153_0_1)"></path></g><g ncbicdd:residue="183"><path d="M 607,58 612,46 612,55 Z" fill="url(#0_102_153_0_0)"></path><path d="M 612,46 612,55 617,58 Z" fill="url(#0_102_153_0_1)"></path></g><g ncbicdd:residue="184"><path d="M 610,58 615,46 615,55 Z" fill="url(#0_102_153_0_0)"></path><path d="M 615,46 615,55 620,58 Z" fill="url(#0_102_153_0_1)"></path></g><g ncbicdd:residue="186"><path d="M 615,58 620,46 620,55 Z" fill="url(#0_102_153_0_0)"></path><path d="M 620,46 620,55 625,58 Z" fill="url(#0_102_153_0_1)"></path></g><line x1="430" y1="58" x2="625" y2="58" stroke="rgb(102,153,0)"></line><text class="featlabel0" font-size="12" text-anchor="end" textLength="146.1915" y="56" x="428">putative DNA binding site</text></g></a></g><g><a href="/Structure/cdd/cddsrv.cgi?uid=cd20023&amp;ascbin=8&amp;maxaln=10&amp;seltype=2&amp;query=SGAGPAEEAGPEGGLEEPDALDDSLTSLQWLQEFSILNAKAPALPPGGTDPHGYHQVASGPAPGSPLAADPACLGQPHTPGKPTSSCTSRSAPPGLQAPPPDDVDYATNPHVKPPYSYATLICMAMQASKATKITLSAIYKWITDNFCYFRHADPTWQNSIRHNLSLNKCFIKVPREKDEPGKGGFWRIDPQYAERLLSGAFKKRRLPPVHIHPAFARQAAQEPSAVPRAGPLTVNTEAQQLLREFEEAAEGTGWGAGEGRLGHKRKQPLPKRVAKVPRPPSTLLPTPEEQGELEPLKGNFDWEAIFDAGTLGGELGALEALELSPPLSPASHVDVDLTIHGRHIDCPATWGPSVEQAADSLDFDETFLATSFLQHPWDESGSGCLPPEPLFEAG&amp;aln=1,112,0,79" xlink:href="/Structure/cdd/cddsrv.cgi?uid=cd20023&amp;ascbin=8&amp;maxaln=10&amp;seltype=2&amp;query=SGAGPAEEAGPEGGLEEPDALDDSLTSLQWLQEFSILNAKAPALPPGGTDPHGYHQVASGPAPGSPLAADPACLGQPHTPGKPTSSCTSRSAPPGLQAPPPDDVDYATNPHVKPPYSYATLICMAMQASKATKITLSAIYKWITDNFCYFRHADPTWQNSIRHNLSLNKCFIKVPREKDEPGKGGFWRIDPQYAERLLSGAFKKRRLPPVHIHPAFARQAAQEPSAVPRAGPLTVNTEAQQLLREFEEAAEGTGWGAGEGRLGHKRKQPLPKRVAKVPRPPSTLLPTPEEQGELEPLKGNFDWEAIFDAGTLGGELGALEALELSPPLSPASHVDVDLTIHGRHIDCPATWGPSVEQAADSLDFDETFLATSFLQHPWDESGSGCLPPEPLFEAG&amp;aln=1,112,0,79" id="p_0_0_2" onmouseenter="domMouseEnter(this);" onmouseleave="defMouseLeave(this);"><g class="aseq dom"><path fill="rgb(102,153,0)" d="M420.55696202531647,64 420.55696202531647,94 632.5569620253165,94 632.5569620253165,64 Z" ncbicdd:interval="(112,190)"></path><path fill="none" stroke="rgb(102,153,0)" d="M420.55696202531647,64 420.55696202531647,94 632.5569620253165,94 632.5569620253165,64 420.55696202531647,64"></path><text class="domlabel1" text-anchor="middle" style="font-size: 31" x="526" y="86">FH_FOXJ1</text></g></a></g><text class="lnlabel" x="0" y="76" font-size="12">Specific hits</text><g class="svg-superfam"><a href="/Structure/cdd/cddsrv.cgi?uid=cl00061" xlink:href="/Structure/cdd/cddsrv.cgi?uid=cl00061" id="f_0_0_3" onmouseenter="domMouseEnter(this);" onmouseleave="defMouseLeave(this);"><g class="aseq dom"><path fill="rgb(204,255,102)" d="M420.55696202531647,100 420.55696202531647,130 632.5569620253165,130 632.5569620253165,100 Z" ncbicdd:interval="(112,190)"></path><text class="domlabel0" text-anchor="middle" style="font-size: 31" x="526" y="122">FH_FOX</text></g></a></g><text class="lnlabel" x="0" y="112" font-size="12">Superfamily arch.</text></g></svg>